<svg width="202" height="235" viewBox="0 0 202 235" fill="none" xmlns="http://www.w3.org/2000/svg">
<path d="M7.66667 171.001L1 167.668V34.3334L67.6667 1L201 67.6669V201.001L194.333 204.335L67.6667 141.001L7.66667 171.001Z" fill="white" fill-opacity="0.03"/>
<path d="M1 34.3335L7.66667 37.6669M1 34.3335L1.00002 167.668L7.66668 171.001M1 34.3335L67.6667 1.00024L201 67.6669M7.66667 37.6669L67.6667 7.66677M7.66667 37.6669L7.66668 171.001M67.6667 7.66677L194.333 71.0003L201 67.6669M67.6667 7.66677L67.6667 141.001M201 67.6669L201 201.001L194.333 204.335L67.6667 141.001M7.66668 171.001L67.6667 141.001M194.333 71.6672V205.001" stroke="#5B5B5B"/>
<path opacity="0.5" d="M134.333 107.667L14.333 47.6672V167.668L134.333 227.668V107.667Z" fill="url(#paint0_linear)"/>
<path d="M134.333 107.667L14.333 47.6672V167.668L134.333 227.668V107.667Z" stroke="#5687C5"/>
<path d="M130.733 103.467L182.066 77.8006C182.726 77.4709 182.726 76.5301 182.066 76.2004C181.815 76.0744 181.518 76.0744 181.266 76.2003L129.933 101.867C129.274 102.197 129.274 103.137 129.933 103.467C130.185 103.593 130.481 103.593 130.733 103.467Z" stroke="#5B5B5B"/>
<path d="M129.5 107.191V103.809C129.5 103.438 129.891 103.196 130.224 103.362C130.393 103.447 130.5 103.62 130.5 103.809V107.191C130.5 107.563 130.109 107.805 129.776 107.638C129.607 107.554 129.5 107.381 129.5 107.191Z" stroke="#5B5B5B"/>
<defs>
<linearGradient id="paint0_linear" x1="5.66635" y1="57.3339" x2="127.667" y2="232.334" gradientUnits="userSpaceOnUse">
<stop stop-color="#95D9FF" stop-opacity="0.32"/>
<stop offset="1" stop-color="#5687C5" stop-opacity="0.21"/>
</linearGradient>
</defs>
</svg>
