<svg width="202" height="235" viewBox="0 0 202 235" fill="none" xmlns="http://www.w3.org/2000/svg">
<path d="M7.66667 171.001L1 167.668V34.3337L67.6667 1.00024L201 67.6671V201.001L194.333 204.335L67.6667 141.001L7.66667 171.001Z" fill="white" fill-opacity="0.03"/>
<path d="M1 34.3338L7.66667 37.6671M1 34.3338L1.00002 167.668L7.66668 171.001M1 34.3338L67.6667 1.00049L201 67.6671M7.66667 37.6671L67.6667 7.66701M7.66667 37.6671L7.66668 171.001M67.6667 7.66701L194.333 71.0006L201 67.6671M67.6667 7.66701L67.6667 141.001M201 67.6671L201 201.002L194.333 204.335L67.6667 141.001M7.66668 171.001L67.6667 141.001M194.333 71.6674V205.001" stroke="#5B5B5B"/>
<path opacity="0.5" d="M134.333 107.667L14.3333 47.6667V167.667L134.333 227.667V107.667Z" fill="url(#paint0_linear)"/>
<path opacity="0.5" d="M134.333 107.667L187.667 81.0002V201.001L134.333 227.667V107.667Z" fill="url(#paint1_linear)"/>
<path d="M134.333 107.667L14.3333 47.6667V167.667L134.333 227.667M134.333 107.667V227.667M134.333 107.667L187.667 81.0002V201.001L134.333 227.667" stroke="#5687C5"/>
<defs>
<linearGradient id="paint0_linear" x1="5.66668" y1="57.3334" x2="127.667" y2="232.334" gradientUnits="userSpaceOnUse">
<stop stop-color="#95D9FF" stop-opacity="0.32"/>
<stop offset="1" stop-color="#5687C5" stop-opacity="0.21"/>
</linearGradient>
<linearGradient id="paint1_linear" x1="5.66671" y1="57.3335" x2="127.667" y2="232.334" gradientUnits="userSpaceOnUse">
<stop stop-color="#95D9FF" stop-opacity="0.32"/>
<stop offset="1" stop-color="#5687C5" stop-opacity="0.21"/>
</linearGradient>
</defs>
</svg>
