<svg width="202" height="235" viewBox="0 0 202 235" fill="none" xmlns="http://www.w3.org/2000/svg">
<path d="M7.66667 171.001L1 167.667V34.3333L67.6667 1L201 67.6667V201.001L194.333 204.334L134.333 234.333L127.667 231V171L67.6667 141.001L7.66667 171.001Z" fill="white" fill-opacity="0.03"/>
<path d="M7.66667 37.6668L67.6667 7.66673M7.66667 37.6668V171M7.66667 37.6668L1 34.3334M67.6667 7.66673L187.667 67.6668L127.667 97.6667M67.6667 7.66673V141M127.667 97.6667L134.333 101M127.667 97.6667V171M1 34.3334V167.667L7.66667 171.001L67.6667 141M1 34.3334L67.6667 1L201 67.6667M134.333 101V234.333M134.333 101L201 67.6667M134.333 234.333L127.667 231V171M134.333 234.333L201 201.001V67.6667M127.667 171L67.6667 141" stroke="#5B5B5B"/>
<path opacity="0.5" d="M127.667 104.333L14.3333 47.6667V167.667L127.667 224.333V104.333Z" fill="url(#paint0_linear)"/>
<path d="M127.667 104.333L14.3333 47.6667V167.667L127.667 224.333" stroke="#5687C5"/>
<defs>
<linearGradient id="paint0_linear" x1="5.66665" y1="57.3334" x2="127.667" y2="232.333" gradientUnits="userSpaceOnUse">
<stop stop-color="#95D9FF" stop-opacity="0.32"/>
<stop offset="1" stop-color="#5687C5" stop-opacity="0.21"/>
</linearGradient>
</defs>
</svg>
