<svg width="201" height="272" viewBox="0 0 201 272" fill="none" xmlns="http://www.w3.org/2000/svg">
<path opacity="0.5" d="M91 46.0002L1 1V181.001L91 226.001V46.0002Z" fill="url(#paint0_linear)"/>
<path d="M91 46.0002L1 1V181.001L91 226.001V46.0002Z" stroke="#5687C5"/>
<path opacity="0.5" d="M181 91.0002L91 46V226.001L181 271.001V91.0002Z" fill="url(#paint1_linear)"/>
<path d="M181 91.0002L91 46V226.001L181 271.001V91.0002Z" stroke="#5687C5"/>
<path d="M83 124L81 123V139L83 140V124Z" fill="#494949" stroke="#5B5B5B"/>
<path d="M99 132L97 131V147L99 148V132Z" fill="#494949" stroke="#5B5B5B"/>
<path d="M5 33L1 31V37L5 39V33Z" fill="#494949" stroke="#5B5B5B"/>
<path d="M5 147L1 145V151L5 153V147Z" fill="#494949" stroke="#5B5B5B"/>
<path d="M181 121L177 119V125L181 127V121Z" fill="#494949" stroke="#5B5B5B"/>
<path d="M181 235.001L177 233.001V239.001L181 241.001V235.001Z" fill="#494949" stroke="#5B5B5B"/>
<defs>
<linearGradient id="paint0_linear" x1="-5.49999" y1="8.25002" x2="86.0004" y2="139.5" gradientUnits="userSpaceOnUse">
<stop stop-color="#95D9FF" stop-opacity="0.32"/>
<stop offset="1" stop-color="#5687C5" stop-opacity="0.21"/>
</linearGradient>
<linearGradient id="paint1_linear" x1="84.5" y1="53.25" x2="176" y2="184.5" gradientUnits="userSpaceOnUse">
<stop stop-color="#95D9FF" stop-opacity="0.32"/>
<stop offset="1" stop-color="#5687C5" stop-opacity="0.21"/>
</linearGradient>
</defs>
</svg>
